<svg width="17" height="16" viewBox="0 0 17 16" fill="none" xmlns="http://www.w3.org/2000/svg">
<path d="M-0.000175206 7.83734C0.0997856 7.59355 0.273385 7.38924 0.546319 7.33628L8.70488 7.33848C9.39238 4.90401 12.8496 4.8827 13.5137 7.33377L15.5207 7.34412C16.1788 7.57506 16.1788 8.41266 15.5207 8.64361L13.5137 8.65395C12.8496 11.105 9.39238 11.084 8.70488 8.64925L0.546319 8.65144C0.273385 8.59848 0.0994723 8.39386 -0.000175206 8.15038V7.83734ZM12.2872 7.99308C12.2872 7.34819 11.7645 6.82551 11.1196 6.82551C10.4747 6.82551 9.95204 7.34819 9.95204 7.99308C9.95204 8.63797 10.4747 9.16065 11.1196 9.16065C11.7645 9.16065 12.2872 8.63797 12.2872 7.99308Z" fill="#ED2024"/>
<path d="M-0.000174924 13.3415C0.0953989 13.1071 0.24769 12.9316 0.491795 12.8482L2.49885 12.8379C3.16254 10.3893 6.62325 10.4066 7.30605 12.8429C10.0517 12.8482 12.8011 12.8225 15.5445 12.8558C16.195 13.1067 16.1621 13.9519 15.4947 14.1527H7.30574C7.06947 14.9728 6.44839 15.6377 5.62959 15.8906L5.16018 15.9997H4.62842C4.37241 15.9464 4.12893 15.8906 3.88796 15.7863C3.20735 15.4914 2.67683 14.8794 2.49853 14.1577L0.491482 14.1474C0.24769 14.0641 0.0950855 13.8886 -0.000488281 13.6542L-0.000174924 13.3415ZM6.05952 13.4975C6.05952 12.8526 5.53684 12.3299 4.89195 12.3299C4.24706 12.3299 3.72438 12.8526 3.72438 13.4975C3.72438 14.1424 4.24706 14.6651 4.89195 14.6651C5.53684 14.6651 6.05952 14.1424 6.05952 13.4975Z" fill="#ED2024"/>
<path d="M-0.000175206 2.33291C0.0953986 2.09852 0.24769 1.92304 0.491795 1.83969L2.49885 1.82935C3.16348 -0.620161 6.62356 -0.601047 7.30605 1.83436L15.4662 1.83154C16.196 2.00734 16.196 2.97091 15.4662 3.1467L7.30605 3.14388C6.62356 5.5796 3.16348 5.5984 2.49885 3.14889L0.491795 3.13855C0.248003 3.0552 0.0953986 2.87972 -0.000175206 2.64533V2.33291ZM6.06015 2.48928C6.06015 1.84439 5.53715 1.3214 4.89227 1.3214C4.24738 1.3214 3.72438 1.84439 3.72438 2.48928C3.72438 3.13417 4.24738 3.65716 4.89227 3.65716C5.53715 3.65716 6.06015 3.13417 6.06015 2.48928Z" fill="#ED2024"/>
</svg>
