<svg width="17" height="20" viewBox="0 0 17 20" fill="none" xmlns="http://www.w3.org/2000/svg">
<path d="M14.7649 0C15.7181 0.060274 16.9996 1.17769 16.9996 2.12877V20H-0.000366211V2.12877C-0.000366211 1.13973 1.278 0.100587 2.23438 0H14.7649ZM1.67559 2.40235C1.6012 2.91585 1.73079 3.58904 1.67559 4.12094L1.73559 4.17965H15.2637L15.3237 4.12094V2.40235C15.3237 2.08767 14.8545 1.6317 14.5073 1.67789L2.41398 1.67945C2.04919 1.70568 1.72519 2.06145 1.67599 2.40235H1.67559ZM15.3233 5.82035H1.67559V18.3205H15.3233V5.82035Z" fill="black"/>
<path d="M12.7693 8.32016H4.22953V10H12.7693V8.32016Z" fill="black"/>
<path d="M9.33741 11.6798H4.22953V13.3205H9.33741V11.6798Z" fill="black"/>
</svg>
