<svg width="19" height="18" viewBox="0 0 19 18" fill="none" xmlns="http://www.w3.org/2000/svg">
<path d="M16.7077 16.4214C17.0345 16.3828 17.3294 16.0927 17.3989 15.7759C17.4535 12.8274 17.4059 9.87034 17.423 6.91887C17.3859 6.41128 16.9733 6.06061 16.4678 6.1309L2.24496 6.13015L5.62063 9.52265L4.49937 10.6438L0.481915 6.62287C-0.151697 5.8877 -0.16321 4.78327 0.463344 4.03991L4.49862 0L5.621 1.1234L2.22602 4.53189L16.8013 4.53114C17.9812 4.62708 18.9131 5.5943 19 6.76975V15.7625C18.9283 16.9302 17.995 17.8806 16.8373 18H1.57644V16.4211H16.7077V16.4214Z" fill="#ED2024"/>
</svg>
