<svg width="24" height="24" viewBox="0 0 24 24" fill="none" xmlns="http://www.w3.org/2000/svg">
<g clip-path="url(#clip0_366_1738)">
<path d="M21.9847 11.032V18.9844H18.9849V14.0158H5.0161V18.9844H2.01587V11.032H21.9847Z" fill="#ED2024"/>
<path d="M0 8.62497C0.0948728 7.43906 1.43671 6 2.64845 6H5.01558V0H18.9844V6H21.3515C22.5097 6 24 7.49119 24 8.64845V21.0002H18.9844V24.0005H5.01558V21.0002H0V8.62497ZM17.0156 2.01581H6.98442V6H17.0156V2.01581ZM2.01581 18.9844H5.01605V14.0158H18.9849V18.9844H21.9851V8.74239C21.9851 8.47374 21.3901 7.93315 21.073 8.01393H2.88094C2.56908 7.96697 2.01581 8.46434 2.01581 8.74239V18.9844ZM17.0156 15.9847H6.98442V21.9847H17.0156V15.9847Z" fill="#282224"/>
<path d="M18.9844 9.98413H15.0002V11.9999H18.9844V9.98413Z" fill="black"/>
</g>
<defs>
<clipPath id="clip0_366_1738">
<rect width="24" height="24" fill="white"/>
</clipPath>
</defs>
</svg>
