<svg width="27" height="36" viewBox="0 0 27 36" fill="none" xmlns="http://www.w3.org/2000/svg">
<rect x="2" y="22" width="23" height="11" fill="#FF0000"/>
<path d="M15.5387 0C16.8253 0.236539 17.985 0.882799 18.7315 1.97398C18.9634 2.3126 19.0833 2.7026 19.3117 3.01025L27 3.02151V32.0391C26.6828 33.9314 25.3321 35.4887 23.428 35.8829C16.7929 36.0181 10.0866 36.068 3.45642 35.8575C1.86533 35.5935 0 33.6245 0 32.0046V3.02151H7.69958C8.22689 1.82544 9.09188 0.800432 10.3375 0.317498C10.6245 0.206268 11.1708 0.0309754 11.4613 0H15.5387ZM16.5229 5.97192V4.32107C16.5229 3.82546 15.8912 3.15315 15.402 3.05248C14.8979 2.949 12.0266 2.95322 11.5437 3.06938C11.0608 3.18554 10.4757 3.8501 10.4757 4.32107V5.97192H3.02287V31.8631C3.02287 32.2299 3.82794 32.9951 4.25303 32.9522L22.6081 32.955C23.0832 33.0761 23.9764 32.2658 23.9764 31.8631V5.97192H16.5229Z" fill="#282224"/>
<path d="M14.9762 8.99343V11.9093L15.0812 12.0149H17.9998V14.9653H15.0812L14.9762 15.0709V17.9869H12.0231V15.0709L11.9174 14.9653H8.99953V12.0149H11.9174L12.0231 11.9093V8.99343H14.9762Z" fill="#282224"/>
<path d="M21.0226 21.0084H5.97595V23.9595H21.0226V21.0084Z" fill="#282224"/>
<path d="M14.9762 26.9803H5.97595V30.0018H14.9762V26.9803Z" fill="#282224"/>
</svg>
