<svg width="20" height="20" viewBox="0 0 20 20" fill="none" xmlns="http://www.w3.org/2000/svg">
<path d="M19.9879 2.16524C20.0039 2.31152 20.0032 2.60369 19.9879 2.75076C19.9362 3.24319 19.6623 3.7806 19.3441 4.15648L11.2044 12.2947C10.1258 16.5146 5.42806 18.6513 1.34862 18.2864C0.40781 18.2023 -0.267662 17.2836 0.102947 16.3781L16.0485 0.431754C17.5537 -0.597698 19.7856 0.30542 19.9879 2.16524ZM9.21908 9.65536L10.4041 10.7157L18.0558 3.10278C18.8127 2.27867 17.8061 1.15534 16.9033 1.87228L9.25078 9.52199L9.21908 9.65536ZM2.18767 16.6476C5.20656 16.5627 8.54517 15.3099 9.4672 12.157C9.11107 11.814 8.76198 11.4542 8.3945 11.1233C8.34128 11.0752 8.06381 10.8201 8.04229 10.8092C8.01215 10.7935 7.99415 10.783 7.9648 10.8092L2.18767 16.6476Z" fill="black"/>
<path d="M19.9879 18.9513V19.3026C19.8713 19.6284 19.658 19.8994 19.2952 19.9569C18.9093 20.0179 17.8374 20.0042 17.4292 19.9679C16.4321 19.8787 16.3706 18.3991 17.4703 18.2884C17.8296 18.252 19.1042 18.2442 19.4106 18.338C19.73 18.4358 19.8587 18.6678 19.9879 18.9513Z" fill="black"/>
<path d="M7.40869 18.2978C7.802 18.2407 8.70641 18.2539 9.11733 18.286C10.2851 18.3775 10.2295 19.8365 9.26878 19.9628C8.88174 20.0136 7.79143 20.0105 7.39812 19.9663C6.46593 19.8615 6.39118 18.4452 7.40869 18.2978Z" fill="black"/>
<path d="M12.4055 18.2978C12.7988 18.2407 13.7032 18.2539 14.1141 18.286C15.2819 18.3775 15.2263 19.8365 14.2656 19.9628C13.8785 20.0136 12.7882 20.0105 12.3949 19.9663C11.4627 19.8615 11.3879 18.4452 12.4055 18.2978Z" fill="black"/>
</svg>
