<svg width="16" height="16" viewBox="0 0 16 16" fill="none" xmlns="http://www.w3.org/2000/svg">
<path d="M8.50343 0C8.69543 0.0521075 8.91476 0.0437569 9.1151 0.0714808C12.6131 0.553809 15.4531 3.38365 15.9288 6.88787C15.9561 7.08829 15.9481 7.30774 16.0001 7.4998V8.49986L15.8904 9.34026C15.4371 11.9951 13.6434 14.2958 11.1678 15.3487C6.36909 17.3895 0.998095 14.4274 0.116761 9.34026L0.00709456 8.49986C0.0230946 8.16083 -0.0145721 7.80309 0.00709456 7.4664C0.259761 3.51291 3.54609 0.231811 7.50376 0H8.50343ZM7.76176 3.20795C7.1931 3.29647 6.75643 3.88601 6.76843 4.45018L7.15876 8.92808C7.40409 9.84497 8.67043 9.80389 8.86109 8.8743L9.23843 4.38271C9.17509 3.6061 8.54143 3.08637 7.76176 3.20795ZM9.0681 11.7315C9.0681 11.1423 8.59076 10.6647 8.00176 10.6647C7.41276 10.6647 6.93543 11.1423 6.93543 11.7315C6.93543 12.3207 7.41276 12.7984 8.00176 12.7984C8.59076 12.7984 9.0681 12.3207 9.0681 11.7315Z" fill="#ED2024"/>
</svg>
