<svg width="22" height="22" viewBox="0 0 22 22" fill="none" xmlns="http://www.w3.org/2000/svg">
<path d="M17 17H5V15H17V17Z" fill="#282224"/>
<path d="M12 13H5V11H12V13Z" fill="#282224"/>
<path fill-rule="evenodd" clip-rule="evenodd" d="M19.1543 0.00390625C20.7394 0.0842143 22 1.39489 22 3V19L21.9961 19.1543C21.9184 20.6883 20.6883 21.9184 19.1543 21.9961L19 22H3L2.8457 21.9961C1.31166 21.9184 0.0816253 20.6883 0.00390625 19.1543L0 19V3C0 1.39489 1.26055 0.0842144 2.8457 0.00390625L3 0H19L19.1543 0.00390625ZM3 2C2.44772 2 2 2.44772 2 3V19C2 19.5523 2.44772 20 3 20H19C19.5523 20 20 19.5523 20 19V3C20 2.44772 19.5523 2 19 2H3Z" fill="#282224"/>
</svg>
