<svg width="18" height="15" viewBox="0 0 18 15" fill="none" xmlns="http://www.w3.org/2000/svg">
<g clip-path="url(#clip0_366_1691)">
<path d="M18 1.97305V15H16.4883V12.7467H1.51172V15H0V1.97305C0.165586 0.960825 0.925664 0.144001 1.95539 0.00598535L15.9448 0C16.9594 0.0559807 17.8917 0.966106 18 1.97305ZM16.4883 8.24007V2.06107C16.4883 1.803 15.9979 1.44458 15.7338 1.47873C11.1681 1.51148 6.58934 1.41958 2.03133 1.52486C1.84535 1.54563 1.51172 1.89137 1.51172 2.06072V8.23972H2.98828V7.37712C2.98828 6.31208 4.02152 5.33929 5.04563 5.24775C5.73504 5.18578 6.91348 5.19986 7.61309 5.24563C8.11969 5.27873 8.60309 5.48082 8.98769 5.80791C9.38285 5.51955 9.81914 5.28894 10.3191 5.2481C11.0123 5.19141 12.2273 5.19141 12.9213 5.24634C13.9641 5.32872 15.0117 6.29201 15.0117 7.37783V8.24042H16.4883V8.24007ZM8.26172 8.24007V7.41268C8.26172 7.36903 8.16012 7.14088 8.12777 7.08912C8.01035 6.90006 7.79836 6.77964 7.57758 6.75993C6.7848 6.68916 5.88656 6.8138 5.08219 6.76345C4.87336 6.78739 4.5 7.14581 4.5 7.34227V8.24007H8.26172ZM13.5 8.24007V7.34227C13.5 7.14581 13.1266 6.78739 12.9178 6.76345C12.1138 6.8138 11.2148 6.68881 10.4224 6.75993C10.2041 6.77964 10.0065 6.88175 9.88488 7.06659C9.84902 7.12081 9.73828 7.36445 9.73828 7.41268V8.24007H13.5ZM1.51172 9.75401V11.268H16.4883V9.75401H1.51172Z" fill="#ED2024"/>
</g>
<defs>
<clipPath id="clip0_366_1691">
<rect width="18" height="15" fill="white"/>
</clipPath>
</defs>
</svg>
