<svg width="21" height="20" viewBox="0 0 21 20" fill="none" xmlns="http://www.w3.org/2000/svg">
<path d="M18.5388 0C18.7057 0.0635394 18.8935 0.0592751 19.0722 0.106183C20.0902 0.371429 20.8221 1.33433 20.9996 2.38294V16.3403L11.361 16.4043V18.1701H15.7496V20H5.24963V18.1701H9.63826V16.4043L9.57662 16.3403H-0.000366211V2.40426C-0.000366211 1.47207 1.05374 0.291684 1.92703 0.106183L2.46046 0H18.5388ZM19.2362 14.5531V2.53177C19.2362 2.32878 18.8573 1.90362 18.6436 1.86994C13.2255 1.80256 7.77457 1.80256 2.35648 1.86994C2.17073 1.88017 1.76388 2.34072 1.76388 2.48913V14.5531H19.2362Z" fill="#282224"/>
<path d="M6.95183 7.27676L9.28977 3.65927L11.8932 9.04392L11.9783 9.03753L13.1043 7.27676H17.5135V9.04264L17.4518 9.10661H14.0474L11.7095 12.6802L9.10484 7.27676L7.89498 9.10661H3.54744L3.4858 9.04264V7.27676H6.95183Z" fill="#282224"/>
</svg>
