<svg width="16" height="16" viewBox="0 0 16 16" fill="none" xmlns="http://www.w3.org/2000/svg">
<path d="M8.90625 0C9.6525 0.125625 10.3263 0.626875 10.5634 1.35844C10.5831 1.41875 10.6562 1.66281 10.6562 1.70312V3.29688L10.7031 3.34375H14.2969C14.3372 3.34375 14.5813 3.41688 14.6416 3.43656C15.3731 3.67375 15.8744 4.3475 16 5.09375V16H0V1.75C0.125625 0.8825 0.860313 0.095625 1.75 0H8.90625ZM9.34375 14.6562V1.92188C9.34375 1.68125 8.99875 1.31844 8.73563 1.3425L1.89062 1.34375C1.69469 1.32844 1.34375 1.65031 1.34375 1.82812V14.6562H9.34375ZM14.6562 14.6562V5.17188C14.6562 5.08656 14.4966 4.87 14.4219 4.8125C14.3659 4.76969 14.1353 4.65625 14.0781 4.65625H10.7031L10.6562 4.70312V14.6562H14.6562Z" fill="#ED2024"/>
<path d="M8 6H6V7.34375H8V6Z" fill="#ED2024"/>
<path d="M8 8.65625H6V10H8V8.65625Z" fill="#ED2024"/>
<path d="M4.65625 6H2.65625V7.34375H4.65625V6Z" fill="#ED2024"/>
<path d="M4.65625 8.65625H2.65625V10H4.65625V8.65625Z" fill="#ED2024"/>
<path d="M4.65625 3.34375H2.65625V4.65625H4.65625V3.34375Z" fill="#ED2024"/>
<path d="M8 3.34375H6V4.65625H8V3.34375Z" fill="#ED2024"/>
<path d="M4.65625 11.3438H2.65625V12.6562H4.65625V11.3438Z" fill="#ED2024"/>
<path d="M8 11.3438H6V12.6562H8V11.3438Z" fill="#ED2024"/>
<path d="M13.3438 6H12V7.34375H13.3438V6Z" fill="#ED2024"/>
<path d="M13.3438 8.65625H12V10H13.3438V8.65625Z" fill="#ED2024"/>
<path d="M13.3438 11.3438H12V12.6562H13.3438V11.3438Z" fill="#ED2024"/>
</svg>
