<svg width="22" height="22" viewBox="0 0 22 22" fill="none" xmlns="http://www.w3.org/2000/svg">
<path d="M19.5036 2.88085C17.4518 0.829062 11.754 2.33124 7.04312 7.04207L7.04209 7.0431C2.33126 11.7544 0.829088 17.4518 2.88088 19.5031C1.69468 19.4959 0.367989 18.4651 0.143614 17.5455C-0.546491 14.501 1.25622 9.60179 5.42825 5.42925L5.42928 5.42822C9.60181 1.25671 14.5005 -0.546517 17.5455 0.143589C18.4656 0.367963 19.4964 1.69465 19.5036 2.88085Z" fill="#ED2024"/>
<path d="M19.3142 0.71739C19.5896 0.992712 19.8103 1.31178 19.9776 1.66738C21.3537 4.58888 19.1804 10.0258 14.6034 14.6029C10.9429 18.2634 6.73281 20.3862 3.69912 20.3862C2.93954 20.3862 2.25304 20.2529 1.66792 19.9776C1.3118 19.8103 0.993252 19.5895 0.71793 19.3142L2.33126 20.9275C3.05894 21.6552 4.09023 21.9995 5.31246 21.9995C8.34614 21.9995 12.5568 19.8762 16.2167 16.2162C21.3521 11.0808 23.461 4.8642 20.9276 2.33072L19.3142 0.71739Z" fill="#ED2024"/>
</svg>
