<svg width="21" height="20" viewBox="0 0 21 20" fill="none" xmlns="http://www.w3.org/2000/svg">
<path d="M20.9996 4.06542V10.4649H19.236V7.00008H1.76364V17.435H11.3611V19.1876H0V2.31238C0.256343 0.99066 1.2407 0.112916 2.6028 0.0283681C4.07277 -0.0627146 5.63708 0.101071 7.1173 0.029185L10.7282 1.78059L18.5613 1.7814C19.7474 1.85329 20.8724 2.88338 20.9996 4.06542ZM19.236 5.24745V4.16712C19.236 3.95432 18.7663 3.51034 18.5182 3.53526L10.3587 3.53281L6.78549 1.78508L2.48509 1.78631C2.25212 1.76588 1.76364 2.22947 1.76364 2.41449V5.24745H19.236Z" fill="#282224"/>
<path d="M20.9582 13.4412L18.3381 16.1186L20.9557 18.7653L19.7687 19.9849L17.0769 17.3974L14.452 20L13.2248 18.8204L15.8309 16.1508L13.2096 13.5368L14.3556 12.3172L17.0474 14.9047L19.7076 12.2592L20.9582 13.4412Z" fill="#282224"/>
<path d="M19.236 5.24745H1.76364V2.41449C1.76364 2.22947 2.25212 1.76588 2.48509 1.78631L6.78549 1.78508L10.3587 3.53281L18.5182 3.53526C18.7663 3.51034 19.236 3.95432 19.236 4.16712V5.24745Z" fill="#ED2024"/>
</svg>
