<svg width="36" height="36" viewBox="0 0 36 36" fill="none" xmlns="http://www.w3.org/2000/svg">
<path d="M17.0416 21.8824C15.382 27.5576 9.37247 29.8125 3.93848 29.9653L7 26.4999C11 26 16 23 17.0416 21.8824Z" fill="#ED2024"/>
<path d="M35.9789 3.89759C36.0077 4.16089 36.0063 4.6868 35.9789 4.95151C35.8859 5.83787 35.3928 6.8052 34.8201 7.48176L20.1686 22.1303C18.2272 29.726 9.77117 33.5721 2.42817 32.9152C0.734717 32.7639 -0.481133 31.1101 0.185964 29.4803L28.8881 0.777365C31.5973 -1.07562 35.6147 0.549966 35.9789 3.89759ZM16.595 17.3796L18.728 19.2882L32.5011 5.58513C33.8635 4.10175 32.0517 2.0798 30.4265 3.37028L16.6521 17.1395L16.595 17.3796ZM3.93847 29.9654C9.37246 29.8126 15.382 27.5576 17.0416 21.8825C16.4006 21.2651 15.7722 20.6174 15.1108 20.0218C15.015 19.9352 14.5155 19.4762 14.4768 19.4565C14.4225 19.4283 14.3901 19.4093 14.3373 19.4565L3.93847 29.9654Z" fill="#282224"/>
<path d="M35.9789 34.1121V34.7443C35.769 35.3307 35.385 35.8186 34.732 35.9221C34.0375 36.0319 32.108 36.0073 31.3733 35.9418C29.5784 35.7813 29.4678 33.118 31.4473 32.9188C32.0939 32.8533 34.3883 32.8392 34.9398 33.0082C35.5146 33.1842 35.7464 33.6017 35.9789 34.1121Z" fill="#282224"/>
<path d="M13.3363 32.9357C14.0443 32.8329 15.6722 32.8568 16.4119 32.9145C18.5139 33.0793 18.4139 35.7053 16.6845 35.9327C15.9878 36.0242 14.0252 36.0186 13.3173 35.939C11.6393 35.7503 11.5048 33.2011 13.3363 32.9357Z" fill="#282224"/>
<path d="M22.3305 32.9357C23.0384 32.8329 24.6664 32.8568 25.406 32.9145C27.5081 33.0793 27.408 35.7053 25.6787 35.9327C24.982 36.0242 23.0194 36.0186 22.3115 35.939C20.6335 35.7503 20.499 33.2011 22.3305 32.9357Z" fill="#282224"/>
</svg>
