<svg width="20" height="20" viewBox="0 0 20 20" fill="none" xmlns="http://www.w3.org/2000/svg">
<path d="M9.99944 0V1.67971H9.1791V2.75399C9.1791 3.59228 10.2879 5.59487 10.5846 6.58305C10.6014 6.63862 10.5603 6.65193 10.6628 6.64018C11.2616 5.35614 11.9743 4.09948 12.8354 2.97276C13.8048 1.70437 15.0999 0.346744 16.7183 0H17.3433C19.4235 0.433234 19.294 2.8534 18.9648 4.49241C18.7566 5.53068 18.3746 6.5126 18.0075 7.49922H19.9996V7.81191C19.3562 11.3521 18.9938 14.9585 18.2607 18.4745C17.8928 19.3546 17.0686 19.9268 16.1144 20H3.88488C2.80506 19.9116 1.9131 19.2059 1.62935 18.1544L-0.000366211 7.49961H1.71819C1.83717 6.12555 2.63285 4.97534 3.0755 3.72065C3.15769 3.4874 3.31973 2.98411 3.31973 2.75399V1.67971H2.49939V0H9.99944ZM7.49968 1.67971H4.99954C5.02028 2.35324 4.98936 3.02325 4.83202 3.68034C4.51814 4.99178 3.64262 6.15725 3.398 7.49961H9.10122C8.90474 6.44177 8.33293 5.51816 7.95016 4.52998C7.5897 3.59894 7.44332 2.68355 7.49968 1.67971ZM16.1711 7.49961C16.7144 6.2136 17.2987 4.85559 17.4553 3.45178C17.4991 3.05847 17.5621 2.0609 17.2827 1.75955C16.9582 1.41007 16.0032 2.11999 15.7238 2.34502C15.2072 2.76143 14.7637 3.2655 14.3359 3.76918L15.8138 4.71196L15.0001 6.11498L13.3579 5.17298L12.0698 7.49961H16.1711ZM18.0854 9.17893H1.91349L3.21405 17.6237C3.25319 17.9493 3.49663 18.1829 3.78704 18.3003H16.2111C16.4882 18.1872 16.7316 17.9653 16.7778 17.6562L18.0854 9.17893Z" fill="#282224"/>
<path d="M6.67935 10.8195H4.99954V16.6785H6.67935V10.8195Z" fill="#282224"/>
<path d="M14.9997 10.8195H13.3199V16.6785H14.9997V10.8195Z" fill="#282224"/>
<path d="M10.8198 10.8195H9.1791V16.6785H10.8198V10.8195Z" fill="#282224"/>
</svg>
