<svg width="15" height="20" viewBox="0 0 15 20" fill="none" xmlns="http://www.w3.org/2000/svg">
<path d="M8.63264 0C9.34739 0.131412 9.99164 0.490447 10.4064 1.09666C10.5352 1.28478 10.6018 1.50146 10.7287 1.67237L15 1.67863V17.7996C14.8238 18.8509 14.0734 19.7161 13.0155 19.9351C9.32937 20.0102 5.60366 20.0379 1.92024 19.921C1.03629 19.7743 0 18.6804 0 17.7805V1.67863H4.27755C4.5705 1.01414 5.05104 0.444688 5.74308 0.176389C5.90248 0.114594 6.20601 0.0172087 6.36736 0H8.63264ZM9.17937 3.31775V2.40061C9.17937 2.12527 8.82846 1.75176 8.55666 1.69584C8.27663 1.63834 6.68146 1.64069 6.41319 1.70522C6.14491 1.76976 5.81984 2.13896 5.81984 2.40061V3.31775H1.67937V17.7019C1.67937 17.9056 2.12663 18.3308 2.36279 18.3069L12.5601 18.3085C12.824 18.3757 13.3202 17.9256 13.3202 17.7019V3.31775H9.17937Z" fill="#282224"/>
<path d="M8.3201 4.99638V6.61634L8.37846 6.67501H9.99987V8.31414H8.37846L8.3201 8.3728V9.99276H6.6795V8.3728L6.62076 8.31414H4.99974V6.67501H6.62076L6.6795 6.61634V4.99638H8.3201Z" fill="#282224"/>
<path d="M11.6792 11.6714H3.31997V13.3109H11.6792V11.6714Z" fill="#282224"/>
<path d="M8.3201 14.9891H3.31997V16.6678H8.3201V14.9891Z" fill="#282224"/>
</svg>
