<svg width="27" height="36" viewBox="0 0 27 36" fill="none" xmlns="http://www.w3.org/2000/svg">
<path d="M23.9766 23.933H3.02344V31.8867C3.02344 32.2537 3.82852 33.0195 4.25391 32.9766L22.609 32.9794C23.0843 33.1003 23.9773 32.2896 23.9773 31.8867L23.9766 23.933Z" fill="#ED2024"/>
<path d="M5.97656 0C6.05461 0.876797 5.8725 1.92586 5.97305 2.78086C5.985 2.88352 5.98148 2.96156 6.08203 3.02344H9V0H12.0234V3.02344H14.9766V0H18V3.02344H20.918C21.0185 2.96156 21.015 2.88352 21.027 2.78086C21.1275 1.92586 20.9454 0.876797 21.0234 0H23.9766L24.0427 2.9925L27 3.02344V32.0625C26.7504 33.4301 26.0114 34.6718 24.7971 35.3791C24.243 35.7012 23.6827 35.858 23.0625 36H3.9375C2.56922 35.7398 1.33242 35.0191 0.620859 33.7971C0.298828 33.243 0.142031 32.6827 0 32.0625V3.02344L2.9925 2.95734L3.02344 0H5.97656ZM23.9766 5.97656H3.02344V31.8867C3.02344 32.2537 3.82852 33.0195 4.25391 32.9766L22.609 32.9794C23.0843 33.1003 23.9773 32.2896 23.9773 31.8867L23.9766 5.97656Z" fill="#282224"/>
<path d="M21.0234 10.4766H5.97656V13.5H21.0234V10.4766Z" fill="#282224"/>
<path d="M21.0234 16.5234H5.97656V19.4766H21.0234V16.5234Z" fill="#282224"/>
<path d="M14.9766 22.5H5.97656V25.5234H14.9766V22.5Z" fill="#282224"/>
</svg>
