<svg width="19" height="18" viewBox="0 0 19 18" fill="none" xmlns="http://www.w3.org/2000/svg">
<path d="M16.9384 0.000352223C17.5044 0.131027 17.894 0.526573 18.0282 1.09013V9.42161C17.8626 10.0281 17.4203 10.454 16.7796 10.5107C14.9441 10.6738 12.8752 10.3902 11.0154 10.5107C10.3205 10.4385 9.82104 9.92811 9.76574 9.2293L9.7675 1.24863C9.82633 0.610402 10.2515 0.162727 10.8566 0H16.9381L16.9384 0.000352223ZM10.8904 1.12289V9.3878H16.9053V1.12324H10.8904V1.12289Z" fill="#ED2024"/>
<path d="M7.20086 0.000352223C7.79012 0.1585 8.22125 0.595257 8.28641 1.21763C8.21772 2.35884 8.39348 3.63811 8.29028 4.76311C8.22829 5.43586 7.71581 5.94904 7.04236 6.01104C5.23369 6.17729 3.18094 5.88635 1.34656 6.01315C0.66078 5.98779 0.0968715 5.48446 0.0285402 4.80009C0.100394 3.63459 -0.0626855 2.36447 0.0285402 1.212C0.0648192 0.750235 0.334622 0.347644 0.743905 0.134901L1.11937 0.000352223H7.20086ZM7.16739 1.12324H1.15213V4.88815H7.16739V1.12324Z" fill="#ED2024"/>
<path d="M18.0282 13.0773V16.9092C17.8947 17.4741 17.4706 17.9165 16.8814 17.9944L10.9788 18C10.2941 17.932 9.7911 17.3678 9.76574 16.682C9.84957 15.5679 9.65726 14.3003 9.77173 13.2045C9.84253 12.5261 10.3758 12.0393 11.0492 11.9861C12.8981 11.8396 14.9424 12.095 16.8113 11.9918C17.4347 12.0541 17.8686 12.4881 18.0282 13.0773ZM16.9053 13.1111H10.89V16.8761H16.9053V13.1111Z" fill="#ED2024"/>
<path d="M1.21694 7.49777L7.042 7.48861C7.61613 7.54144 8.08317 7.91797 8.23815 8.47202C8.3255 11.3049 8.3255 14.1819 8.23815 17.0148C8.10431 17.5506 7.6274 17.9465 7.07899 18L1.20778 17.9982C0.674165 17.938 0.230716 17.5706 0.0750336 17.0571C-0.0299288 14.27 0.0588314 11.461 0.0299491 8.66609C0.112721 8.04688 0.595971 7.57279 1.21694 7.49777ZM7.16704 8.61115H1.15213V16.8761H7.16704V8.61115Z" fill="#ED2024"/>
</svg>
